<svg xmlns="http://www.w3.org/2000/svg" xmlns:xlink="http://www.w3.org/1999/xlink" width="500" zoomAndPan="magnify" viewBox="0 0 375 374.999991" height="500" preserveAspectRatio="xMidYMid meet" version="1.0"><defs><g/></defs><rect x="-37.5" width="450" fill="#ffffff" y="-37.499999" height="449.999989" fill-opacity="1"/><rect x="-37.5" width="450" fill="#ffffff" y="-37.499999" height="449.999989" fill-opacity="1"/><path stroke-linecap="butt" transform="matrix(0.793438, 0, 0, 0.793438, 159.396234, -24.637123)" fill="none" stroke-linejoin="miter" d="M 88.123095 228.156266 C 96.600841 230.908333 105.167206 234.137951 113.817264 237.845119 C 122.462399 241.498132 129.709347 246.436099 135.548259 252.673791 C 141.387172 258.847481 144.311551 267.35969 144.311551 278.195648 C 144.311551 289.932552 141.081934 299.311244 134.622698 306.331724 C 128.222541 313.352204 120.187882 318.34925 110.528568 321.327784 C 100.869254 324.301396 90.988396 325.793125 80.876148 325.793125 C 69.365711 325.793125 58.076819 323.79923 47.014393 319.811439 C 36.006123 315.764571 26.573276 310.068431 18.710929 302.70825 C 17.140429 300.857128 16.687495 299.19801 17.361973 297.740744 C 18.036451 296.224399 19.188479 295.466226 20.818057 295.466226 C 22.221169 295.466226 23.373197 295.914237 24.269219 296.815182 C 29.999821 301.866383 37.635701 306.302185 47.181782 310.122586 C 56.727862 313.883909 68.410611 315.764571 82.225104 315.764571 C 95.818053 315.764571 106.23554 312.564492 113.477563 306.164335 C 120.724511 299.7051 124.343061 292.684619 124.343061 285.102895 C 124.343061 278.422115 121.930694 273.001675 117.101037 268.846496 C 112.27138 264.691317 106.570317 261.29431 100.002771 258.650553 C 93.430302 256.011719 87.502772 253.909513 82.225104 252.33409 C 76.046491 250.256501 69.508484 248.124756 62.596314 245.933933 C 55.689068 243.74311 49.234755 241.045198 43.223531 237.845119 C 37.271385 234.590885 32.441727 230.322473 28.73456 225.039882 C 25.08647 219.762213 23.259964 212.854967 23.259964 204.318142 C 23.259964 193.762806 26.012031 185.339214 31.516166 179.047368 C 37.020301 172.701366 43.952164 168.098176 52.3216 165.232874 C 60.745192 162.313418 69.449405 160.964462 78.434241 161.190929 C 89.275123 161.412473 98.594737 162.677735 106.402928 164.981791 C 114.206197 167.280925 121.005133 171.327793 126.78989 177.112551 C 131.619547 181.942208 134.145148 186.378009 134.371615 190.419955 C 134.593159 194.407745 133.500209 197.661978 131.082919 200.192502 C 128.670552 202.718103 125.83479 203.983364 122.575633 203.983364 C 120.271576 203.983364 117.972443 203.141498 115.668387 201.452841 C 113.423408 199.714952 111.710135 196.87919 110.528568 192.945555 C 108.677446 185.590297 105.221361 179.972929 100.17016 176.098372 C 95.114036 172.16966 87.872012 170.200381 78.434241 170.200381 C 67.145349 170.200381 58.441135 172.844138 52.3216 178.121806 C 46.256221 183.399474 43.223531 189.267926 43.223531 195.727162 C 43.223531 202.860875 45.80821 208.448705 50.972644 212.49065 C 56.196157 216.478441 62.37477 219.624364 69.508484 221.923497 C 76.637274 224.227554 82.845427 226.305143 88.123095 228.156266 Z M 88.123095 228.156266 " stroke="#ffffff" stroke-width="14.664455" stroke-opacity="1" stroke-miterlimit="4"/><g fill="#000000" fill-opacity="1"><g transform="translate(167.157045, 230.849767)"><g><path d="M 62.140625 -74.46875 C 68.898438 -72.269531 75.703125 -69.710938 82.546875 -66.796875 C 89.390625 -63.878906 95.132812 -59.957031 99.78125 -55.03125 C 104.4375 -50.101562 106.765625 -43.347656 106.765625 -34.765625 C 106.765625 -25.460938 104.207031 -18.023438 99.09375 -12.453125 C 93.988281 -6.890625 87.601562 -2.921875 79.9375 -0.546875 C 72.269531 1.828125 64.421875 3.015625 56.390625 3.015625 C 47.265625 3.015625 38.320312 1.414062 29.5625 -1.78125 C 20.800781 -4.976562 13.320312 -9.492188 7.125 -15.328125 C 5.84375 -16.785156 5.472656 -18.109375 6.015625 -19.296875 C 6.566406 -20.484375 7.484375 -21.078125 8.765625 -21.078125 C 9.859375 -21.078125 10.769531 -20.710938 11.5 -19.984375 C 16.0625 -15.972656 22.128906 -12.457031 29.703125 -9.4375 C 37.273438 -6.425781 46.535156 -4.921875 57.484375 -4.921875 C 68.253906 -4.921875 76.515625 -7.476562 82.265625 -12.59375 C 88.015625 -17.707031 90.890625 -23.273438 90.890625 -29.296875 C 90.890625 -34.585938 88.972656 -38.875 85.140625 -42.15625 C 81.304688 -45.445312 76.785156 -48.140625 71.578125 -50.234375 C 66.378906 -52.335938 61.679688 -54.023438 57.484375 -55.296875 C 52.554688 -56.941406 47.351562 -58.628906 41.875 -60.359375 C 36.40625 -62.097656 31.296875 -64.242188 26.546875 -66.796875 C 21.804688 -69.347656 17.972656 -72.722656 15.046875 -76.921875 C 12.128906 -81.117188 10.671875 -86.597656 10.671875 -93.359375 C 10.671875 -101.753906 12.859375 -108.457031 17.234375 -113.46875 C 21.617188 -118.488281 27.140625 -122.140625 33.796875 -124.421875 C 40.460938 -126.703125 47.359375 -127.753906 54.484375 -127.578125 C 63.054688 -127.390625 70.445312 -126.382812 76.65625 -124.5625 C 82.863281 -122.738281 88.25 -119.546875 92.8125 -114.984375 C 96.644531 -111.148438 98.648438 -107.632812 98.828125 -104.4375 C 99.015625 -101.25 98.148438 -98.648438 96.234375 -96.640625 C 94.316406 -94.628906 92.078125 -93.625 89.515625 -93.625 C 87.691406 -93.625 85.867188 -94.304688 84.046875 -95.671875 C 82.222656 -97.046875 80.851562 -99.285156 79.9375 -102.390625 C 78.476562 -108.234375 75.738281 -112.703125 71.71875 -115.796875 C 67.707031 -118.898438 61.960938 -120.453125 54.484375 -120.453125 C 45.535156 -120.453125 38.644531 -118.351562 33.8125 -114.15625 C 28.976562 -109.957031 26.5625 -105.304688 26.5625 -100.203125 C 26.5625 -94.546875 28.613281 -90.117188 32.71875 -86.921875 C 36.820312 -83.722656 41.703125 -81.210938 47.359375 -79.390625 C 53.015625 -77.566406 57.941406 -75.925781 62.140625 -74.46875 Z M 62.140625 -74.46875 "/></g></g></g><path stroke-linecap="butt" transform="matrix(1.711079, 0, 0, 1.711079, 74.182164, -24.637145)" fill="none" stroke-linejoin="miter" d="M 74.734373 146.421913 C 75.592749 146.421913 76.049332 146.798594 76.101839 147.55424 C 76.154346 148.309885 75.75027 148.79158 74.889611 148.999325 C 72.96283 149.51983 71.088556 149.782365 69.264506 149.782365 C 66.609475 149.782365 64.212413 149.143149 62.077887 147.866999 C 59.94336 146.590849 58.874956 144.19607 58.874956 140.68038 C 58.874956 139.299215 58.874956 137.945446 58.874956 136.616789 C 58.874956 135.26302 58.874956 133.94806 58.874956 132.67191 C 57.078301 137.488863 53.87537 141.655185 49.266162 145.170875 C 44.682067 148.686566 38.392634 150.444411 30.397862 150.444411 C 23.263749 150.444411 17.793883 148.583835 13.992828 144.860399 C 10.216885 141.109568 8.328913 136.943246 8.328913 132.359151 C 8.328913 127.56731 9.552556 123.647544 11.999842 120.602134 C 14.447128 117.554441 17.561025 115.209886 21.336968 113.570752 C 25.138023 111.904224 29.201614 110.705693 33.523174 109.977443 C 37.847017 109.221798 41.922022 108.740102 45.750472 108.532357 C 49.49902 108.322329 52.624332 108.192202 55.124125 108.139695 C 57.623918 108.062076 58.874956 107.763014 58.874956 107.242509 C 58.874956 105.1057 58.874956 102.996286 58.874956 100.914266 C 58.874956 98.829964 58.874956 96.72055 58.874956 94.586023 C 58.874956 90.862587 57.936677 87.828592 56.062403 85.484037 C 54.213241 83.141766 51.843574 81.409032 48.953403 80.288121 C 46.088343 79.169492 43.001841 78.610177 39.696179 78.610177 C 35.424843 78.610177 31.530188 79.404632 28.014498 80.991259 C 24.811566 82.607563 23.094814 84.780899 22.859673 87.515833 C 22.651928 90.223371 23.028609 92.631847 23.992 94.741262 C 25.163136 97.423688 25.112911 99.571912 23.836761 101.188216 C 22.560611 102.777126 21.010511 103.569298 19.186462 103.569298 C 17.702566 103.569298 16.323685 102.932364 15.047535 101.656214 C 13.771385 100.354952 13.079661 98.27065 12.97693 95.40559 C 12.97693 94.339468 13.237183 92.997114 13.757687 91.383092 C 13.757687 91.278078 13.757687 91.225571 13.757687 91.225571 C 13.757687 91.225571 13.757687 91.175347 13.757687 91.070333 C 13.862702 90.862587 13.940321 90.679954 13.992828 90.522433 C 14.045335 90.367195 14.122954 90.237068 14.225685 90.132054 C 14.460826 89.378692 14.759887 88.634461 15.125154 87.906211 C 15.490421 87.150566 15.892214 86.499935 16.3351 85.952035 C 16.647859 85.43153 16.960618 84.988645 17.273378 84.625661 C 17.61125 84.235282 17.937707 83.831206 18.250466 83.413433 C 18.353197 83.310701 18.458211 83.258194 18.563225 83.258194 C 18.770971 82.815309 19.031223 82.46374 19.343983 82.203487 C 19.681854 81.943235 20.008311 81.694397 20.321071 81.461539 C 23.211242 79.011971 26.596807 77.203901 30.475481 76.030482 C 34.383833 74.859347 38.301317 74.272637 42.234781 74.272637 C 46.921608 74.272637 51.348182 75.055677 55.514503 76.617192 C 59.683108 78.153594 63.093784 80.418247 65.751098 83.413433 C 68.431242 86.383506 69.773596 90.106942 69.773596 94.586023 C 69.773596 101.642517 69.773596 108.986657 69.773596 116.616162 C 69.773596 124.220555 69.773596 131.603506 69.773596 138.765013 C 69.773596 142.072958 70.216482 144.182373 71.102253 145.093256 C 72.013137 145.979027 73.223082 146.421913 74.734373 146.421913 Z M 33.758314 145.328396 C 36.2056 145.328396 38.835519 144.899208 41.648072 144.038549 C 44.488019 143.180173 47.18186 141.655185 49.73416 139.468151 C 52.311572 137.281118 54.448382 134.299629 56.140022 130.523686 C 57.859058 126.747743 58.769941 121.9696 58.874956 116.186974 C 58.874956 115.35371 58.874956 114.506748 58.874956 113.648372 C 58.874956 112.789995 58.874956 111.981843 58.874956 111.226198 C 55.464279 111.226198 51.569624 111.422529 47.195557 111.812907 C 42.819208 112.178174 38.627774 113.022853 34.616691 114.35151 C 30.633002 115.680167 27.325057 117.789581 24.695138 120.679753 C 22.090331 123.569924 20.789069 127.514803 20.789069 132.516672 C 20.789069 136.032363 21.960204 139.05266 24.304759 141.577566 C 26.674426 144.077358 29.82485 145.328396 33.758314 145.328396 Z M 33.758314 145.328396 " stroke="#ffffff" stroke-width="6.8" stroke-opacity="1" stroke-miterlimit="4"/><g fill="#000000" fill-opacity="1"><g transform="translate(82.951444, 230.313654)"><g><path d="M 119.09375 -4.375 C 120.550781 -4.375 121.320312 -3.734375 121.40625 -2.453125 C 121.5 -1.179688 120.816406 -0.363281 119.359375 0 C 116.078125 0.914062 112.882812 1.375 109.78125 1.375 C 105.21875 1.375 101.109375 0.28125 97.453125 -1.90625 C 93.804688 -4.101562 91.984375 -8.210938 91.984375 -14.234375 C 91.984375 -16.609375 91.984375 -18.9375 91.984375 -21.21875 C 91.984375 -23.5 91.984375 -25.734375 91.984375 -27.921875 C 88.878906 -19.710938 83.398438 -12.59375 75.546875 -6.5625 C 67.703125 -0.539062 56.9375 2.46875 43.25 2.46875 C 31.019531 2.46875 21.664062 -0.722656 15.1875 -7.109375 C 8.707031 -13.503906 5.46875 -20.625 5.46875 -28.46875 C 5.46875 -36.6875 7.566406 -43.394531 11.765625 -48.59375 C 15.960938 -53.789062 21.300781 -57.800781 27.78125 -60.625 C 34.257812 -63.457031 41.195312 -65.515625 48.59375 -66.796875 C 55.988281 -68.078125 62.96875 -68.898438 69.53125 -69.265625 C 75.925781 -69.628906 81.265625 -69.851562 85.546875 -69.9375 C 89.835938 -70.03125 91.984375 -70.535156 91.984375 -71.453125 C 91.984375 -75.097656 91.984375 -78.703125 91.984375 -82.265625 C 91.984375 -85.828125 91.984375 -89.429688 91.984375 -93.078125 C 91.984375 -99.460938 90.382812 -104.660156 87.1875 -108.671875 C 84 -112.691406 79.941406 -115.660156 75.015625 -117.578125 C 70.085938 -119.492188 64.796875 -120.453125 59.140625 -120.453125 C 51.835938 -120.453125 45.175781 -119.082031 39.15625 -116.34375 C 33.675781 -113.613281 30.753906 -109.921875 30.390625 -105.265625 C 30.023438 -100.609375 30.660156 -96.457031 32.296875 -92.8125 C 34.304688 -88.25 34.21875 -84.597656 32.03125 -81.859375 C 29.84375 -79.117188 27.195312 -77.75 24.09375 -77.75 C 21.539062 -77.75 19.164062 -78.84375 16.96875 -81.03125 C 14.78125 -83.21875 13.597656 -86.78125 13.421875 -91.71875 C 13.421875 -93.539062 13.875 -95.820312 14.78125 -98.5625 C 14.78125 -98.738281 14.78125 -98.828125 14.78125 -98.828125 C 14.78125 -98.828125 14.78125 -98.921875 14.78125 -99.109375 C 14.96875 -99.472656 15.101562 -99.789062 15.1875 -100.0625 C 15.28125 -100.332031 15.421875 -100.5625 15.609375 -100.75 C 15.972656 -102.019531 16.472656 -103.296875 17.109375 -104.578125 C 17.742188 -105.859375 18.425781 -106.953125 19.15625 -107.859375 C 19.707031 -108.773438 20.253906 -109.550781 20.796875 -110.1875 C 21.347656 -110.832031 21.898438 -111.519531 22.453125 -112.25 C 22.628906 -112.425781 22.8125 -112.515625 23 -112.515625 C 23.363281 -113.242188 23.816406 -113.835938 24.359375 -114.296875 C 24.910156 -114.753906 25.457031 -115.164062 26 -115.53125 C 30.9375 -119.726562 36.734375 -122.828125 43.390625 -124.828125 C 50.054688 -126.835938 56.765625 -127.84375 63.515625 -127.84375 C 71.546875 -127.84375 79.117188 -126.519531 86.234375 -123.875 C 93.347656 -121.226562 99.1875 -117.347656 103.75 -112.234375 C 108.3125 -107.128906 110.59375 -100.742188 110.59375 -93.078125 C 110.59375 -81.035156 110.59375 -68.488281 110.59375 -55.4375 C 110.59375 -42.382812 110.59375 -29.742188 110.59375 -17.515625 C 110.59375 -11.859375 111.367188 -8.253906 112.921875 -6.703125 C 114.472656 -5.148438 116.53125 -4.375 119.09375 -4.375 Z M 49 -6.296875 C 53.195312 -6.296875 57.710938 -7.023438 62.546875 -8.484375 C 67.390625 -9.941406 72 -12.539062 76.375 -16.28125 C 80.757812 -20.03125 84.410156 -25.144531 87.328125 -31.625 C 90.253906 -38.101562 91.804688 -46.269531 91.984375 -56.125 C 91.984375 -57.582031 91.984375 -59.039062 91.984375 -60.5 C 91.984375 -61.957031 91.984375 -63.328125 91.984375 -64.609375 C 86.140625 -64.609375 79.476562 -64.285156 72 -63.640625 C 64.519531 -63.003906 57.359375 -61.546875 50.515625 -59.265625 C 43.671875 -56.984375 38.007812 -53.378906 33.53125 -48.453125 C 29.0625 -43.523438 26.828125 -36.773438 26.828125 -28.203125 C 26.828125 -22.171875 28.832031 -17.007812 32.84375 -12.71875 C 36.863281 -8.4375 42.25 -6.296875 49 -6.296875 Z M 49 -6.296875 "/></g></g></g><g fill="#000000" fill-opacity="1"><g transform="translate(124.382652, 269.204776)"><g><path d="M 16.546875 -0.375 C 16.648438 -0.351562 16.703125 -0.300781 16.703125 -0.21875 C 16.703125 -0.132812 16.640625 -0.09375 16.515625 -0.09375 C 16.222656 -0.09375 15.960938 -0.09375 15.734375 -0.09375 C 15.503906 -0.09375 15.257812 -0.09375 15 -0.09375 L 15 -0.109375 L 13.1875 -0.109375 L 13.1875 -0.09375 C 12.9375 -0.09375 12.675781 -0.09375 12.40625 -0.09375 C 12.144531 -0.09375 11.859375 -0.09375 11.546875 -0.09375 C 11.421875 -0.09375 11.359375 -0.132812 11.359375 -0.21875 C 11.359375 -0.300781 11.414062 -0.351562 11.53125 -0.375 C 11.789062 -0.414062 12.03125 -0.441406 12.25 -0.453125 C 12.476562 -0.472656 12.632812 -0.539062 12.71875 -0.65625 C 12.8125 -0.769531 12.789062 -1 12.65625 -1.34375 C 12.519531 -1.695312 12.378906 -2.050781 12.234375 -2.40625 C 12.085938 -2.757812 11.9375 -3.113281 11.78125 -3.46875 L 4.125 -3.46875 L 3.234375 -1.34375 C 3.097656 -1 3.109375 -0.769531 3.265625 -0.65625 C 3.429688 -0.539062 3.660156 -0.472656 3.953125 -0.453125 C 4.242188 -0.441406 4.515625 -0.414062 4.765625 -0.375 C 4.890625 -0.351562 4.945312 -0.300781 4.9375 -0.21875 C 4.925781 -0.132812 4.863281 -0.09375 4.75 -0.09375 C 4.445312 -0.09375 4.09375 -0.09375 3.6875 -0.09375 C 3.289062 -0.09375 2.960938 -0.09375 2.703125 -0.09375 L 2.703125 -0.109375 L 2.171875 -0.109375 L 2.171875 -0.09375 C 1.929688 -0.09375 1.695312 -0.09375 1.46875 -0.09375 C 1.25 -0.09375 0.984375 -0.09375 0.671875 -0.09375 C 0.566406 -0.09375 0.507812 -0.132812 0.5 -0.21875 C 0.488281 -0.300781 0.535156 -0.351562 0.640625 -0.375 C 0.910156 -0.414062 1.164062 -0.441406 1.40625 -0.453125 C 1.644531 -0.472656 1.867188 -0.550781 2.078125 -0.6875 C 2.296875 -0.832031 2.484375 -1.097656 2.640625 -1.484375 C 3.503906 -3.535156 4.363281 -5.582031 5.21875 -7.625 C 6.070312 -9.664062 6.925781 -11.710938 7.78125 -13.765625 C 7.925781 -14.117188 8.066406 -14.367188 8.203125 -14.515625 C 8.347656 -14.660156 8.625 -14.695312 9.03125 -14.625 L 14.609375 -1.34375 C 14.773438 -1 14.957031 -0.769531 15.15625 -0.65625 C 15.351562 -0.539062 15.570312 -0.472656 15.8125 -0.453125 C 16.050781 -0.441406 16.296875 -0.414062 16.546875 -0.375 Z M 4.34375 -3.984375 L 11.546875 -3.984375 C 10.972656 -5.304688 10.40625 -6.632812 9.84375 -7.96875 C 9.28125 -9.300781 8.722656 -10.632812 8.171875 -11.96875 C 8.003906 -12.320312 7.847656 -12.320312 7.703125 -11.96875 Z M 4.34375 -3.984375 "/></g></g></g><g fill="#000000" fill-opacity="1"><g transform="translate(142.871446, 269.204776)"><g><path d="M 6.359375 -8.625 C 7.097656 -8.476562 7.859375 -8.3125 8.640625 -8.125 C 9.421875 -7.9375 10.140625 -7.679688 10.796875 -7.359375 C 11.460938 -7.046875 12.003906 -6.617188 12.421875 -6.078125 C 12.835938 -5.546875 13.046875 -4.851562 13.046875 -4 C 13.046875 -3 12.753906 -2.179688 12.171875 -1.546875 C 11.597656 -0.921875 10.851562 -0.457031 9.9375 -0.15625 C 9.03125 0.132812 8.070312 0.28125 7.0625 0.28125 C 5.789062 0.28125 4.648438 0.113281 3.640625 -0.21875 C 2.628906 -0.5625 1.644531 -1.175781 0.6875 -2.0625 C 0.488281 -2.28125 0.429688 -2.476562 0.515625 -2.65625 C 0.597656 -2.832031 0.726562 -2.921875 0.90625 -2.921875 C 1.0625 -2.921875 1.195312 -2.832031 1.3125 -2.65625 C 1.726562 -2.09375 2.242188 -1.625 2.859375 -1.25 C 3.484375 -0.875 4.132812 -0.601562 4.8125 -0.4375 C 5.488281 -0.28125 6.128906 -0.210938 6.734375 -0.234375 C 7.628906 -0.265625 8.421875 -0.445312 9.109375 -0.78125 C 9.804688 -1.125 10.347656 -1.554688 10.734375 -2.078125 C 11.117188 -2.609375 11.304688 -3.15625 11.296875 -3.71875 C 11.296875 -4.289062 11.046875 -4.820312 10.546875 -5.3125 C 10.054688 -5.800781 9.269531 -6.164062 8.1875 -6.40625 C 7.445312 -6.59375 6.664062 -6.769531 5.84375 -6.9375 C 5.019531 -7.113281 4.25 -7.335938 3.53125 -7.609375 C 2.8125 -7.890625 2.226562 -8.273438 1.78125 -8.765625 C 1.332031 -9.265625 1.109375 -9.914062 1.109375 -10.71875 C 1.109375 -11.675781 1.367188 -12.453125 1.890625 -13.046875 C 2.421875 -13.648438 3.101562 -14.085938 3.9375 -14.359375 C 4.769531 -14.640625 5.640625 -14.78125 6.546875 -14.78125 C 7.578125 -14.78125 8.582031 -14.613281 9.5625 -14.28125 C 9.894531 -14.1875 10.253906 -14.023438 10.640625 -13.796875 L 10.6875 -13.796875 C 10.882812 -13.671875 11.066406 -13.539062 11.234375 -13.40625 C 11.398438 -13.28125 11.535156 -13.15625 11.640625 -13.03125 C 11.960938 -12.644531 12.050781 -12.304688 11.90625 -12.015625 C 11.769531 -11.734375 11.566406 -11.59375 11.296875 -11.59375 C 11.179688 -11.59375 11.054688 -11.625 10.921875 -11.6875 C 10.796875 -11.757812 10.6875 -11.875 10.59375 -12.03125 C 10.46875 -12.25 10.382812 -12.46875 10.34375 -12.6875 C 10.300781 -12.914062 10.195312 -13.132812 10.03125 -13.34375 C 9.863281 -13.5625 9.546875 -13.765625 9.078125 -13.953125 C 8.328125 -14.179688 7.523438 -14.296875 6.671875 -14.296875 C 5.984375 -14.296875 5.335938 -14.203125 4.734375 -14.015625 C 4.140625 -13.835938 3.65625 -13.539062 3.28125 -13.125 C 2.914062 -12.71875 2.734375 -12.1875 2.734375 -11.53125 C 2.734375 -11.144531 2.820312 -10.769531 3 -10.40625 C 3.1875 -10.039062 3.539062 -9.707031 4.0625 -9.40625 C 4.59375 -9.101562 5.359375 -8.84375 6.359375 -8.625 Z M 6.359375 -8.625 "/></g></g></g><g fill="#000000" fill-opacity="1"><g transform="translate(157.704206, 269.204776)"><g><path d="M 6.359375 -8.625 C 7.097656 -8.476562 7.859375 -8.3125 8.640625 -8.125 C 9.421875 -7.9375 10.140625 -7.679688 10.796875 -7.359375 C 11.460938 -7.046875 12.003906 -6.617188 12.421875 -6.078125 C 12.835938 -5.546875 13.046875 -4.851562 13.046875 -4 C 13.046875 -3 12.753906 -2.179688 12.171875 -1.546875 C 11.597656 -0.921875 10.851562 -0.457031 9.9375 -0.15625 C 9.03125 0.132812 8.070312 0.28125 7.0625 0.28125 C 5.789062 0.28125 4.648438 0.113281 3.640625 -0.21875 C 2.628906 -0.5625 1.644531 -1.175781 0.6875 -2.0625 C 0.488281 -2.28125 0.429688 -2.476562 0.515625 -2.65625 C 0.597656 -2.832031 0.726562 -2.921875 0.90625 -2.921875 C 1.0625 -2.921875 1.195312 -2.832031 1.3125 -2.65625 C 1.726562 -2.09375 2.242188 -1.625 2.859375 -1.25 C 3.484375 -0.875 4.132812 -0.601562 4.8125 -0.4375 C 5.488281 -0.28125 6.128906 -0.210938 6.734375 -0.234375 C 7.628906 -0.265625 8.421875 -0.445312 9.109375 -0.78125 C 9.804688 -1.125 10.347656 -1.554688 10.734375 -2.078125 C 11.117188 -2.609375 11.304688 -3.15625 11.296875 -3.71875 C 11.296875 -4.289062 11.046875 -4.820312 10.546875 -5.3125 C 10.054688 -5.800781 9.269531 -6.164062 8.1875 -6.40625 C 7.445312 -6.59375 6.664062 -6.769531 5.84375 -6.9375 C 5.019531 -7.113281 4.25 -7.335938 3.53125 -7.609375 C 2.8125 -7.890625 2.226562 -8.273438 1.78125 -8.765625 C 1.332031 -9.265625 1.109375 -9.914062 1.109375 -10.71875 C 1.109375 -11.675781 1.367188 -12.453125 1.890625 -13.046875 C 2.421875 -13.648438 3.101562 -14.085938 3.9375 -14.359375 C 4.769531 -14.640625 5.640625 -14.78125 6.546875 -14.78125 C 7.578125 -14.78125 8.582031 -14.613281 9.5625 -14.28125 C 9.894531 -14.1875 10.253906 -14.023438 10.640625 -13.796875 L 10.6875 -13.796875 C 10.882812 -13.671875 11.066406 -13.539062 11.234375 -13.40625 C 11.398438 -13.28125 11.535156 -13.15625 11.640625 -13.03125 C 11.960938 -12.644531 12.050781 -12.304688 11.90625 -12.015625 C 11.769531 -11.734375 11.566406 -11.59375 11.296875 -11.59375 C 11.179688 -11.59375 11.054688 -11.625 10.921875 -11.6875 C 10.796875 -11.757812 10.6875 -11.875 10.59375 -12.03125 C 10.46875 -12.25 10.382812 -12.46875 10.34375 -12.6875 C 10.300781 -12.914062 10.195312 -13.132812 10.03125 -13.34375 C 9.863281 -13.5625 9.546875 -13.765625 9.078125 -13.953125 C 8.328125 -14.179688 7.523438 -14.296875 6.671875 -14.296875 C 5.984375 -14.296875 5.335938 -14.203125 4.734375 -14.015625 C 4.140625 -13.835938 3.65625 -13.539062 3.28125 -13.125 C 2.914062 -12.71875 2.734375 -12.1875 2.734375 -11.53125 C 2.734375 -11.144531 2.820312 -10.769531 3 -10.40625 C 3.1875 -10.039062 3.539062 -9.707031 4.0625 -9.40625 C 4.59375 -9.101562 5.359375 -8.84375 6.359375 -8.625 Z M 6.359375 -8.625 "/></g></g></g><g fill="#000000" fill-opacity="1"><g transform="translate(172.536966, 269.204776)"><g><path d="M 12.328125 -2.65625 C 12.359375 -2.769531 12.429688 -2.820312 12.546875 -2.8125 C 12.671875 -2.800781 12.734375 -2.742188 12.734375 -2.640625 L 12.609375 -0.234375 C 12.609375 -0.148438 12.554688 -0.109375 12.453125 -0.109375 L 0.671875 -0.109375 C 0.546875 -0.109375 0.484375 -0.164062 0.484375 -0.28125 C 0.484375 -0.40625 0.535156 -0.472656 0.640625 -0.484375 C 0.910156 -0.535156 1.148438 -0.570312 1.359375 -0.59375 C 1.578125 -0.613281 1.75 -0.691406 1.875 -0.828125 C 2.007812 -0.972656 2.078125 -1.242188 2.078125 -1.640625 L 2.078125 -13.078125 C 2.078125 -13.492188 2.007812 -13.769531 1.875 -13.90625 C 1.75 -14.039062 1.578125 -14.113281 1.359375 -14.125 C 1.148438 -14.144531 0.910156 -14.179688 0.640625 -14.234375 C 0.535156 -14.265625 0.484375 -14.335938 0.484375 -14.453125 C 0.484375 -14.566406 0.546875 -14.625 0.671875 -14.625 L 11.921875 -14.625 C 12.023438 -14.625 12.078125 -14.585938 12.078125 -14.515625 L 12.21875 -12.078125 C 12.21875 -11.984375 12.15625 -11.925781 12.03125 -11.90625 C 11.90625 -11.894531 11.828125 -11.945312 11.796875 -12.0625 C 11.691406 -12.5625 11.53125 -12.957031 11.3125 -13.25 C 11.09375 -13.550781 10.765625 -13.765625 10.328125 -13.890625 C 9.890625 -14.023438 9.269531 -14.09375 8.46875 -14.09375 L 4.84375 -14.09375 C 4.539062 -14.09375 4.289062 -14.03125 4.09375 -13.90625 C 3.894531 -13.78125 3.796875 -13.519531 3.796875 -13.125 L 3.796875 -7.296875 L 8.40625 -7.296875 C 9.125 -7.296875 9.597656 -7.453125 9.828125 -7.765625 C 10.066406 -8.078125 10.191406 -8.40625 10.203125 -8.75 C 10.222656 -8.875 10.289062 -8.929688 10.40625 -8.921875 C 10.53125 -8.910156 10.59375 -8.84375 10.59375 -8.71875 L 10.59375 -5.34375 C 10.59375 -5.238281 10.53125 -5.179688 10.40625 -5.171875 C 10.289062 -5.160156 10.222656 -5.210938 10.203125 -5.328125 C 10.191406 -5.679688 10.066406 -6.007812 9.828125 -6.3125 C 9.597656 -6.625 9.125 -6.78125 8.40625 -6.78125 L 3.796875 -6.78125 L 3.796875 -1.59375 C 3.796875 -1.257812 3.875 -1.019531 4.03125 -0.875 C 4.195312 -0.738281 4.40625 -0.65625 4.65625 -0.625 L 9.25 -0.625 C 10.050781 -0.625 10.648438 -0.6875 11.046875 -0.8125 C 11.453125 -0.945312 11.738281 -1.164062 11.90625 -1.46875 C 12.082031 -1.769531 12.222656 -2.164062 12.328125 -2.65625 Z M 12.328125 -2.65625 "/></g></g></g><g fill="#000000" fill-opacity="1"><g transform="translate(187.045781, 269.204776)"><g><path d="M 13.625 -14.421875 L 13.75 -11.734375 C 13.757812 -11.628906 13.703125 -11.570312 13.578125 -11.5625 C 13.460938 -11.550781 13.390625 -11.597656 13.359375 -11.703125 C 13.265625 -12.179688 13.179688 -12.570312 13.109375 -12.875 C 13.035156 -13.175781 12.910156 -13.40625 12.734375 -13.5625 C 12.554688 -13.726562 12.285156 -13.84375 11.921875 -13.90625 C 11.566406 -13.96875 11.054688 -14 10.390625 -14 L 9 -14 C 8.707031 -14 8.457031 -13.9375 8.25 -13.8125 C 8.050781 -13.6875 7.953125 -13.425781 7.953125 -13.03125 L 7.953125 -1.53125 C 7.953125 -1.125 8.019531 -0.847656 8.15625 -0.703125 C 8.300781 -0.554688 8.484375 -0.472656 8.703125 -0.453125 C 8.929688 -0.441406 9.171875 -0.414062 9.421875 -0.375 C 9.546875 -0.351562 9.601562 -0.28125 9.59375 -0.15625 C 9.582031 -0.0390625 9.515625 0.015625 9.390625 0.015625 L 4.84375 0.015625 C 4.71875 0.015625 4.648438 -0.0390625 4.640625 -0.15625 C 4.628906 -0.28125 4.679688 -0.351562 4.796875 -0.375 C 5.054688 -0.414062 5.296875 -0.441406 5.515625 -0.453125 C 5.742188 -0.472656 5.921875 -0.554688 6.046875 -0.703125 C 6.179688 -0.847656 6.25 -1.125 6.25 -1.53125 L 6.25 -13.03125 C 6.25 -13.425781 6.144531 -13.6875 5.9375 -13.8125 C 5.738281 -13.9375 5.503906 -14 5.234375 -14 L 3.84375 -14 C 3.175781 -14 2.660156 -13.96875 2.296875 -13.90625 C 1.941406 -13.84375 1.671875 -13.726562 1.484375 -13.5625 C 1.304688 -13.40625 1.179688 -13.175781 1.109375 -12.875 C 1.046875 -12.570312 0.96875 -12.179688 0.875 -11.703125 C 0.863281 -11.597656 0.789062 -11.550781 0.65625 -11.5625 C 0.53125 -11.570312 0.472656 -11.628906 0.484375 -11.734375 L 0.609375 -14.421875 C 0.609375 -14.492188 0.660156 -14.53125 0.765625 -14.53125 L 13.46875 -14.53125 C 13.570312 -14.53125 13.625 -14.492188 13.625 -14.421875 Z M 13.625 -14.421875 "/></g></g></g><g fill="#000000" fill-opacity="1"><g transform="translate(202.595869, 269.204776)"><g><path d="M 6.359375 -8.625 C 7.097656 -8.476562 7.859375 -8.3125 8.640625 -8.125 C 9.421875 -7.9375 10.140625 -7.679688 10.796875 -7.359375 C 11.460938 -7.046875 12.003906 -6.617188 12.421875 -6.078125 C 12.835938 -5.546875 13.046875 -4.851562 13.046875 -4 C 13.046875 -3 12.753906 -2.179688 12.171875 -1.546875 C 11.597656 -0.921875 10.851562 -0.457031 9.9375 -0.15625 C 9.03125 0.132812 8.070312 0.28125 7.0625 0.28125 C 5.789062 0.28125 4.648438 0.113281 3.640625 -0.21875 C 2.628906 -0.5625 1.644531 -1.175781 0.6875 -2.0625 C 0.488281 -2.28125 0.429688 -2.476562 0.515625 -2.65625 C 0.597656 -2.832031 0.726562 -2.921875 0.90625 -2.921875 C 1.0625 -2.921875 1.195312 -2.832031 1.3125 -2.65625 C 1.726562 -2.09375 2.242188 -1.625 2.859375 -1.25 C 3.484375 -0.875 4.132812 -0.601562 4.8125 -0.4375 C 5.488281 -0.28125 6.128906 -0.210938 6.734375 -0.234375 C 7.628906 -0.265625 8.421875 -0.445312 9.109375 -0.78125 C 9.804688 -1.125 10.347656 -1.554688 10.734375 -2.078125 C 11.117188 -2.609375 11.304688 -3.15625 11.296875 -3.71875 C 11.296875 -4.289062 11.046875 -4.820312 10.546875 -5.3125 C 10.054688 -5.800781 9.269531 -6.164062 8.1875 -6.40625 C 7.445312 -6.59375 6.664062 -6.769531 5.84375 -6.9375 C 5.019531 -7.113281 4.25 -7.335938 3.53125 -7.609375 C 2.8125 -7.890625 2.226562 -8.273438 1.78125 -8.765625 C 1.332031 -9.265625 1.109375 -9.914062 1.109375 -10.71875 C 1.109375 -11.675781 1.367188 -12.453125 1.890625 -13.046875 C 2.421875 -13.648438 3.101562 -14.085938 3.9375 -14.359375 C 4.769531 -14.640625 5.640625 -14.78125 6.546875 -14.78125 C 7.578125 -14.78125 8.582031 -14.613281 9.5625 -14.28125 C 9.894531 -14.1875 10.253906 -14.023438 10.640625 -13.796875 L 10.6875 -13.796875 C 10.882812 -13.671875 11.066406 -13.539062 11.234375 -13.40625 C 11.398438 -13.28125 11.535156 -13.15625 11.640625 -13.03125 C 11.960938 -12.644531 12.050781 -12.304688 11.90625 -12.015625 C 11.769531 -11.734375 11.566406 -11.59375 11.296875 -11.59375 C 11.179688 -11.59375 11.054688 -11.625 10.921875 -11.6875 C 10.796875 -11.757812 10.6875 -11.875 10.59375 -12.03125 C 10.46875 -12.25 10.382812 -12.46875 10.34375 -12.6875 C 10.300781 -12.914062 10.195312 -13.132812 10.03125 -13.34375 C 9.863281 -13.5625 9.546875 -13.765625 9.078125 -13.953125 C 8.328125 -14.179688 7.523438 -14.296875 6.671875 -14.296875 C 5.984375 -14.296875 5.335938 -14.203125 4.734375 -14.015625 C 4.140625 -13.835938 3.65625 -13.539062 3.28125 -13.125 C 2.914062 -12.71875 2.734375 -12.1875 2.734375 -11.53125 C 2.734375 -11.144531 2.820312 -10.769531 3 -10.40625 C 3.1875 -10.039062 3.539062 -9.707031 4.0625 -9.40625 C 4.59375 -9.101562 5.359375 -8.84375 6.359375 -8.625 Z M 6.359375 -8.625 "/></g></g></g><g fill="#000000" fill-opacity="1"><g transform="translate(217.428629, 269.204776)"><g><path d="M 6.453125 -14.828125 C 7.367188 -14.816406 8.234375 -14.570312 9.046875 -14.09375 C 9.867188 -13.613281 10.53125 -12.847656 11.03125 -11.796875 C 11.539062 -10.753906 11.796875 -9.34375 11.796875 -7.5625 C 11.796875 -6.175781 11.617188 -4.992188 11.265625 -4.015625 C 10.910156 -3.046875 10.4375 -2.253906 9.84375 -1.640625 C 9.25 -1.023438 8.59375 -0.570312 7.875 -0.28125 C 7.15625 0 6.4375 0.140625 5.71875 0.140625 C 4.769531 0.140625 3.910156 -0.0625 3.140625 -0.46875 C 3.078125 -0.5 3.046875 -0.515625 3.046875 -0.515625 L 3.03125 -0.515625 C 2.644531 -0.722656 2.316406 -0.960938 2.046875 -1.234375 C 1.773438 -1.503906 1.570312 -1.765625 1.4375 -2.015625 C 1.4375 -2.046875 1.425781 -2.0625 1.40625 -2.0625 C 1.40625 -2.09375 1.390625 -2.125 1.359375 -2.15625 C 1.328125 -2.226562 1.300781 -2.296875 1.28125 -2.359375 C 1.269531 -2.421875 1.257812 -2.484375 1.25 -2.546875 C 1.25 -2.585938 1.253906 -2.617188 1.265625 -2.640625 C 1.253906 -2.890625 1.316406 -3.082031 1.453125 -3.21875 C 1.597656 -3.351562 1.742188 -3.421875 1.890625 -3.421875 C 2.066406 -3.421875 2.222656 -3.351562 2.359375 -3.21875 C 2.492188 -3.09375 2.585938 -2.890625 2.640625 -2.609375 C 2.671875 -2.460938 2.695312 -2.296875 2.71875 -2.109375 C 2.738281 -1.929688 2.828125 -1.753906 2.984375 -1.578125 C 3.773438 -0.785156 4.660156 -0.390625 5.640625 -0.390625 C 6.367188 -0.390625 7.0625 -0.625 7.71875 -1.09375 C 8.375 -1.570312 8.910156 -2.28125 9.328125 -3.21875 C 9.742188 -4.15625 9.953125 -5.3125 9.953125 -6.6875 C 9.953125 -6.8125 9.925781 -6.875 9.875 -6.875 C 9.832031 -6.875 9.796875 -6.832031 9.765625 -6.75 C 9.472656 -6.1875 9.03125 -5.660156 8.4375 -5.171875 C 7.84375 -4.679688 7.070312 -4.421875 6.125 -4.390625 C 5.125 -4.359375 4.269531 -4.53125 3.5625 -4.90625 C 2.851562 -5.28125 2.285156 -5.773438 1.859375 -6.390625 C 1.429688 -7.015625 1.148438 -7.703125 1.015625 -8.453125 C 0.890625 -9.203125 0.90625 -9.953125 1.0625 -10.703125 C 1.226562 -11.460938 1.535156 -12.160156 1.984375 -12.796875 C 2.429688 -13.429688 3.03125 -13.929688 3.78125 -14.296875 C 4.53125 -14.671875 5.421875 -14.847656 6.453125 -14.828125 Z M 6.09375 -5.203125 C 6.914062 -5.203125 7.601562 -5.414062 8.15625 -5.84375 C 8.707031 -6.28125 9.117188 -6.835938 9.390625 -7.515625 C 9.671875 -8.191406 9.8125 -8.910156 9.8125 -9.671875 C 9.8125 -10.441406 9.675781 -11.171875 9.40625 -11.859375 C 9.132812 -12.546875 8.71875 -13.097656 8.15625 -13.515625 C 7.601562 -13.941406 6.914062 -14.15625 6.09375 -14.15625 C 5.363281 -14.15625 4.75 -13.9375 4.25 -13.5 C 3.757812 -13.070312 3.382812 -12.519531 3.125 -11.84375 C 2.875 -11.164062 2.738281 -10.441406 2.71875 -9.671875 C 2.707031 -8.910156 2.820312 -8.191406 3.0625 -7.515625 C 3.300781 -6.835938 3.671875 -6.28125 4.171875 -5.84375 C 4.671875 -5.414062 5.3125 -5.203125 6.09375 -5.203125 Z M 6.09375 -5.203125 "/></g></g></g><g fill="#000000" fill-opacity="1"><g transform="translate(231.011862, 269.204776)"><g><path d="M 5.109375 -0.484375 C 5.234375 -0.472656 5.289062 -0.40625 5.28125 -0.28125 C 5.28125 -0.164062 5.21875 -0.109375 5.09375 -0.109375 L 0.640625 -0.109375 C 0.535156 -0.109375 0.476562 -0.164062 0.46875 -0.28125 C 0.46875 -0.40625 0.519531 -0.472656 0.625 -0.484375 C 0.882812 -0.535156 1.125 -0.570312 1.34375 -0.59375 C 1.570312 -0.613281 1.75 -0.691406 1.875 -0.828125 C 2.007812 -0.972656 2.078125 -1.242188 2.078125 -1.640625 L 2.078125 -11.78125 C 2.078125 -12.195312 2.035156 -12.476562 1.953125 -12.625 C 1.878906 -12.769531 1.742188 -12.84375 1.546875 -12.84375 C 1.359375 -12.851562 1.082031 -12.859375 0.71875 -12.859375 C 0.59375 -12.859375 0.519531 -12.910156 0.5 -13.015625 C 0.476562 -13.128906 0.539062 -13.210938 0.6875 -13.265625 C 1.09375 -13.398438 1.550781 -13.617188 2.0625 -13.921875 C 2.570312 -14.234375 2.972656 -14.566406 3.265625 -14.921875 C 3.335938 -15.035156 3.421875 -15.082031 3.515625 -15.0625 C 3.609375 -15.050781 3.65625 -14.972656 3.65625 -14.828125 L 3.65625 -1.640625 C 3.65625 -1.242188 3.722656 -0.972656 3.859375 -0.828125 C 4.003906 -0.691406 4.1875 -0.613281 4.40625 -0.59375 C 4.632812 -0.570312 4.867188 -0.535156 5.109375 -0.484375 Z M 5.109375 -0.484375 "/></g></g></g></svg>